<?xml version="1.0" encoding="UTF-8"?>
<svg width="30px" height="31px" viewBox="0 0 30 31" version="1.1" xmlns="http://www.w3.org/2000/svg" xmlns:xlink="http://www.w3.org/1999/xlink">
    <!-- Generator: Sketch 53.2 (72643) - https://sketchapp.com -->
    <title>Group 4 Copy</title>
    <desc>Created with Sketch.</desc>
    <g id="Page-1" stroke="none" stroke-width="1" fill="none" fill-rule="evenodd">
        <g id="elegir-copy" transform="translate(-269.000000, -534.000000)" fill="#FFFFFF">
            <g id="Group-5" transform="translate(256.000000, 522.000000)">
                <g id="Group-4-Copy" transform="translate(13.000000, 12.000000)">
                    <path d="M29.4389913,0.575126556 C29.0652956,0.191602818 28.622443,0 28.1109503,0 C27.5993542,0 27.1565016,0.191602818 26.7828059,0.575126556 L13.5606986,14.1375735 C13.1870029,14.5210973 13,14.9750274 13,15.4997879 C13,16.0245485 13.1870029,16.4787967 13.5606986,16.8620023 L26.7828059,30.4244493 C27.1563982,30.807973 27.5992508,31 28.1109503,31 C28.622443,31 29.0652956,30.807973 29.4389913,30.4244493 C29.8128937,30.0412437 30,29.5869955 30,29.0622349 L30,1.93734095 C29.9998966,1.41258038 29.8128937,0.958756328 29.4389913,0.575126556 Z" id="Path" fill-rule="nonzero" transform="translate(21.500000, 15.500000) rotate(-180.000000) translate(-21.500000, -15.500000) "></path>
                    <rect id="Rectangle" x="0" y="9" width="15" height="14" rx="2"></rect>
                </g>
            </g>
        </g>
    </g>
</svg>